<svg id="link-chain-balanced" version="1.1" xmlns="http://www.w3.org/2000/svg" viewBox="-2.7 5.8 14.7 12.3" width="150" height="125">
  <path fill="#666666" d="M3 3c-1.108 0-2 .892-2 2v4c0 1.108.892 2 2 2h3c1.108 0 2-.892 2-2V5c0-1.108-.892-2-2-2zm0 1h3c.554 0 1 .446 1 1v4c0 .554-.446 1-1 1H3c-.554 0-1-.446-1-1V5c0-.554.446-1 1-1z" />

  <path fill="#5A5A5A" d="M3 13c-1.108 0-2 .892-2 2v4c0 1.108.892 2 2 2h3c1.108 0 2-.892 2-2v-4c0-1.108-.892-2-2-2zm0 1h3c.554 0 1 .446 1 1v4c0 .554-.446 1-1 1H3c-.554 0-1-.446-1-1v-4c0-.554.446-1 1-1z" />

  <g fill="#4D4D4D">
    <path d="M4.5 8c-.554 0-1 .446-1 1v3h2V9c0-.554-.446-1-1-1z" />
    <path d="M3.5 12v3c0 .554.446 1 1 1s1-.446 1-1v-3z" />
  </g>
</svg>