<svg id="svg4355" version="1.1" xmlns="http://www.w3.org/2000/svg" viewBox="-2.6999999999999993 5.775983999999999 14.687999999999999 12.336" style="max-height: 500px" width="14.687999999999999" height="12.336"><metadata id="metadata4360">image/svg+xml2021Timothée Giet</metadata><path style="opacity:1;vector-effect:none;fill:#7A7A73;fill-opacity:1;stroke:none;stroke-width:4;stroke-linecap:square;stroke-linejoin:round;stroke-miterlimit:4;stroke-dasharray:none;stroke-dashoffset:3.20000005;stroke-opacity:.55063291" d="M3 3c-1.108 0-2 .892-2 2v4c0 1.108.892 2 2 2h3c1.108 0 2-.892 2-2V5c0-1.108-.892-2-2-2zm0 1h3c.554 0 1 .446 1 1v4c0 .554-.446 1-1 1H3c-.554 0-1-.446-1-1V5c0-.554.446-1 1-1z" id="rect819"/><path style="opacity:1;vector-effect:none;fill:#7A7A73;fill-opacity:1;stroke:none;stroke-width:4;stroke-linecap:square;stroke-linejoin:round;stroke-miterlimit:4;stroke-dasharray:none;stroke-dashoffset:3.20000005;stroke-opacity:.55063291" d="M3 13c-1.108 0-2 .892-2 2v4c0 1.108.892 2 2 2h3c1.108 0 2-.892 2-2v-4c0-1.108-.892-2-2-2zm0 1h3c.554 0 1 .446 1 1v4c0 .554-.446 1-1 1H3c-.554 0-1-.446-1-1v-4c0-.554.446-1 1-1z" id="rect819-3"/><path style="opacity:1;vector-effect:none;fill:#7A7A73;fill-opacity:1;stroke:none;stroke-width:4;stroke-linecap:square;stroke-linejoin:round;stroke-miterlimit:4;stroke-dasharray:none;stroke-dashoffset:3.20000005;stroke-opacity:.55063291" d="M4.5 8c-.554 0-1 .446-1 1v3h2V9c0-.554-.446-1-1-1z" id="rect839"/><path style="opacity:1;vector-effect:none;fill:#7A7A73;fill-opacity:1;stroke:none;stroke-width:4;#stroke-linecap:square;stroke-linejoin:round;stroke-miterlimit:4;stroke-dasharray:none;stroke-dashoffset:3.20000005;stroke-opacity:.55063291" d="M3.5 12v3c0 .554.446 1 1 1s1-.446 1-1v-3z" id="rect839-6"/></svg>
