<svg xmlns="http://www.w3.org/2000/svg" viewBox="-45 -42 90 44" width="60" height="28">
  <path d="M-28 0 Q-30 -4 -29 -10 Q-27.5 -14 -25.5 -14 Q-23.5 -14 -23 -10 Q-22.5 -4 -24 0Z" fill="#3a4535" opacity="0.92"/>
  <g transform="rotate(-8, -25.5, -14)">
    <path d="M-37 -14 Q-32 -23 -25.5 -24 Q-19 -23 -14 -14 Q-19 -10 -25.5 -9.5 Q-32 -10 -37 -14Z" fill="#8a2a1a"/>
    <path d="M-34 -14 Q-30 -21 -25.5 -22 Q-21 -21 -17 -14" fill="#a03020" opacity="0.35"/>
    <path d="M-37 -14 Q-25.5 -9 -14 -14" stroke="#5a1a0a" stroke-width="0.55" fill="none" opacity="0.5"/>
    <circle cx="-30" cy="-18" r="1.4" fill="#e8d5b0" opacity="0.58"/>
    <circle cx="-22" cy="-21" r="1.1" fill="#e8d5b0" opacity="0.52"/>
    <circle cx="-17" cy="-15" r="1.0" fill="#e8d5b0" opacity="0.48"/>
  </g>

  <path d="M-3 0 Q-4.5 -7 -4 -16 Q-2 -21 0 -21 Q2 -21 4 -16 Q4.5 -7 3 0Z" fill="#3a4535" opacity="0.95"/>
  <path d="M-24 -21 Q-19 -36 0 -38 Q19 -36 24 -21 Q12 -15 0 -14.5 Q-12 -15 -24 -21Z" fill="#8a2a1a"/>
  <path d="M-20 -21 Q-15 -33 0 -35 Q15 -33 20 -21" fill="#a03020" opacity="0.38"/>
  <path d="M-24 -21 Q0 -13 24 -21" stroke="#5a1a0a" stroke-width="0.7" fill="none" opacity="0.5"/>
  <circle cx="-11" cy="-29" r="2.1" fill="#e8d5b0" opacity="0.6"/>
  <circle cx="5"   cy="-33" r="1.7" fill="#e8d5b0" opacity="0.55"/>
  <circle cx="15"  cy="-26" r="1.5" fill="#e8d5b0" opacity="0.52"/>
  <circle cx="-18" cy="-23" r="1.2" fill="#e8d5b0" opacity="0.46"/>

  <path d="M26 0 Q25 -5 25.5 -12 Q27 -17 29 -17 Q31 -17 31.5 -12 Q32 -5 31 0Z" fill="#3a4535" opacity="0.9"/>
  <g transform="rotate(6, 29, -17)">
    <path d="M17 -17 Q22 -27 29 -28 Q36 -27 41 -17 Q36 -12.5 29 -12 Q22 -12.5 17 -17Z" fill="#8a2a1a" opacity="0.94"/>
    <path d="M19 -17 Q23 -25 29 -26 Q35 -25 39 -17" fill="#a03020" opacity="0.32"/>
    <path d="M17 -17 Q29 -11.5 41 -17" stroke="#5a1a0a" stroke-width="0.6" fill="none" opacity="0.48"/>
    <circle cx="23" cy="-22" r="1.5" fill="#e8d5b0" opacity="0.56"/>
    <circle cx="31" cy="-25" r="1.2" fill="#e8d5b0" opacity="0.5"/>
    <circle cx="37" cy="-19" r="1.0" fill="#e8d5b0" opacity="0.44"/>
  </g>
</svg>