<svg xmlns="http://www.w3.org/2000/svg" viewBox="-60 -32 360 34" width="200" height="22">
  <!-- gross aufrecht -->
  <g transform="translate(60, 0)">
    <path d="M-3 0 Q-4.5 -8 -4 -17 Q-2 -22 0 -22 Q2 -22 4 -17 Q4.5 -8 3 0Z" fill="#3a4535" opacity="0.95"/>
    <ellipse cx="0" cy="-22" rx="20" ry="10" fill="#4a5a3a"/>
    <ellipse cx="-2" cy="-25" rx="14" ry="6.5" fill="#5a6a48" opacity="0.5"/>
    <ellipse cx="-5" cy="-27" rx="5.5" ry="2.5" fill="#6a7a55" opacity="0.22"/>
    <path d="M-20 -21 Q0 -14 20 -21" stroke="#2a3a28" stroke-width="0.7" fill="none" opacity="0.48"/>
    <circle cx="-9"  cy="-23" r="1.8" fill="#e8d5b0" opacity="0.26"/>
    <circle cx="4"   cy="-26" r="1.4" fill="#e8d5b0" opacity="0.22"/>
    <circle cx="13"  cy="-22" r="1.5" fill="#e8d5b0" opacity="0.22"/>
  </g>

  <!-- mittel leicht geneigt -->
  <g transform="translate(170, 0)">
    <path d="M-2.5 0 Q-3.5 -6 -3 -13 Q-1.5 -18 0 -18 Q1.5 -18 3 -13 Q3.5 -6 2.5 0Z" fill="#3a4535" opacity="0.92"/>
    <g transform="rotate(-5, 0, -18)">
      <ellipse cx="0" cy="-18" rx="16" ry="8" fill="#3a6a4a"/>
      <ellipse cx="-1.5" cy="-21" rx="11" ry="5" fill="#4a7a58" opacity="0.45"/>
      <path d="M-16 -17 Q0 -11 16 -17" stroke="#2a3a28" stroke-width="0.65" fill="none" opacity="0.44"/>
      <circle cx="-7" cy="-19" r="1.5" fill="#e8d5b0" opacity="0.24"/>
      <circle cx="5"  cy="-22" r="1.2" fill="#e8d5b0" opacity="0.2"/>
      <circle cx="11" cy="-18" r="1.1" fill="#e8d5b0" opacity="0.2"/>
    </g>
  </g>

  <!-- klein leicht geneigt -->
  <g transform="translate(260, 0)">
    <path d="M-2 0 Q-3 -5 -2.5 -11 Q-1 -15 0 -15 Q1 -15 2.5 -11 Q3 -5 2 0Z" fill="#3a4535" opacity="0.9"/>
    <g transform="rotate(6, 0, -15)">
      <ellipse cx="0" cy="-15" rx="13" ry="6.5" fill="#4a5a3a" opacity="0.95"/>
      <ellipse cx="-1" cy="-17.5" rx="9" ry="4" fill="#5a6a48" opacity="0.42"/>
      <path d="M-13 -14.5 Q0 -9 13 -14.5" stroke="#2a3a28" stroke-width="0.6" fill="none" opacity="0.42"/>
      <circle cx="-5" cy="-16" r="1.2" fill="#e8d5b0" opacity="0.22"/>
      <circle cx="5"  cy="-18" r="1.0" fill="#e8d5b0" opacity="0.2"/>
    </g>
  </g>
</svg>