<svg xmlns="http://www.w3.org/2000/svg" viewBox="-45 -32 90 34" width="90" height="34">
  <path d="M-22 0 Q-23.5 -5 -23 -10 Q-21.5 -14 -20 -14 Q-18.5 -14 -18 -10 Q-17.5 -5 -19 0Z" fill="#4a2e18" opacity="0.92"/>
  <ellipse cx="-20" cy="-14" rx="11" ry="5.5" fill="#6a3a1a"/>
  <ellipse cx="-21" cy="-16" rx="7.5" ry="3.5" fill="#8a5a2a" opacity="0.45"/>
  <path d="M-31 -13 Q-20 -8 -9 -13" stroke="#3a2010" stroke-width="0.55" fill="none" opacity="0.42"/>
  <circle cx="-24" cy="-15" r="1.2" fill="rgba(180,140,80,0.9)" opacity="0.28"/>
  <circle cx="-16" cy="-16" r="1.0" fill="rgba(180,140,80,0.9)" opacity="0.24"/>

  <path d="M-3 0 Q-4.5 -9 -4 -17 Q-2 -22 0 -22 Q2 -22 4 -17 Q4.5 -9 3 0Z" fill="#4a2e18" opacity="0.95"/>
  <ellipse cx="0" cy="-22" rx="19" ry="9.5" fill="#6a3a1a"/>
  <ellipse cx="-1.5" cy="-25" rx="13" ry="6" fill="#8a5a2a" opacity="0.48"/>
  <ellipse cx="-4" cy="-27" rx="5" ry="2.5" fill="#9a6a3a" opacity="0.2"/>
  <path d="M-19 -21 Q0 -14 19 -21" stroke="#3a2010" stroke-width="0.7" fill="none" opacity="0.45"/>
  <circle cx="-8"  cy="-23" r="1.6" fill="rgba(180,140,80,0.9)" opacity="0.3"/>
  <circle cx="4"   cy="-26" r="1.3" fill="rgba(180,140,80,0.9)" opacity="0.26"/>
  <circle cx="11"  cy="-22" r="1.2" fill="rgba(180,140,80,0.9)" opacity="0.24"/>

  <path d="M21 0 Q20 -6 20.5 -12 Q22 -17 24 -17 Q26 -17 27 -12 Q27.5 -6 26 0Z" fill="#4a2e18" opacity="0.9"/>
  <ellipse cx="24" cy="-17" rx="14" ry="7" fill="#6a3a1a" opacity="0.92"/>
  <ellipse cx="23" cy="-19.5" rx="9.5" ry="4.5" fill="#8a5a2a" opacity="0.44"/>
  <path d="M10 -16 Q24 -10 38 -16" stroke="#3a2010" stroke-width="0.6" fill="none" opacity="0.4"/>
  <circle cx="19" cy="-18" r="1.3" fill="rgba(180,140,80,0.9)" opacity="0.26"/>
  <circle cx="28" cy="-20" r="1.1" fill="rgba(180,140,80,0.9)" opacity="0.24"/>
</svg>