<svg xmlns="http://www.w3.org/2000/svg" viewBox="30 -8 40 58" width="40" height="58">
  
  <path d="M50 50 Q44 43 51 35 Q58 27 44 18 Q38 11 50 4 Q55 1 52 -4" stroke="#265a30" stroke-width="1.2" fill="none" stroke-linecap="round" opacity="0.9"/>

  <ellipse cx="44" cy="36" rx="8" ry="3.5" fill="#2a6034" transform="rotate(-25,44,36)"/>
  <line x1="47" y1="35" x2="41" y2="38" stroke="#1a4025" stroke-width="0.7" opacity="0.7"/>

  <path d="M50 50 Q44 43 51 35" stroke="#265a30" stroke-width="1.2" fill="none" stroke-linecap="round" opacity="0.9"/>

  <ellipse cx="58" cy="26" rx="7" ry="3" fill="#265a30" transform="rotate(20,58,26)"/>
  <line x1="55" y1="25" x2="60" y2="27" stroke="#1a4025" stroke-width="0.7" opacity="0.65"/>

  <path d="M51 35 Q58 27 44 18" stroke="#265a30" stroke-width="1.2" fill="none" stroke-linecap="round" opacity="0.9"/>

  <ellipse cx="43" cy="16" rx="8" ry="3.5" fill="#2a6034" transform="rotate(-20,43,16)"/>
  <line x1="46" y1="15" x2="41" y2="18" stroke="#1a4025" stroke-width="0.7" opacity="0.65"/>

  <path d="M44 18 Q38 11 50 4 Q55 1 52 -4" stroke="#265a30" stroke-width="1.2" fill="none" stroke-linecap="round" opacity="0.9"/>

  <path d="M52 -2 Q57 -6 54 -10" stroke="#265a30" stroke-width="0.7" fill="none" opacity="0.55"/>
</svg>